# xmcd CD database file
#
# Track frame offsets:
#	150
#	15583
#	32365
#
# Disc length: 642 seconds
#
# Revision: 0
# Processed by: cddbd v1.5.1PL0 Copyright (c) Steve Scherf et al.
# Submitted via: CDex 1.51
#
DISCID=13028003
DTITLE=蜉蝣 - 絶望にサヨナラ
DYEAR=2005
DGENRE=Japanese Rock
TTITLE0=絶望にサヨナラ
TTITLE1=私。
TTITLE2=愛はサベージ
EXTD=YEAR: 2005
EXTT0=
EXTT1=
EXTT2=
PLAYORDER=
